<svg width="77" height="77" viewBox="0 0 77 77" fill="none" xmlns="http://www.w3.org/2000/svg">
<path d="M0 0H42.0891H73.1248H77V3.61255V20.2955V76.908C76.9649 76.9276 76.9418 76.9425 76.8997 76.9536C76.6171 77.0311 75.4011 76.9738 75.0441 76.9738L69.9443 76.9744L46.9957 76.9731C46.8365 76.9725 46.6998 76.9849 46.5579 76.9087C46.5201 76.9282 46.5027 76.9393 46.4637 76.951C46.2267 77.0226 39.1597 77.0037 38.3619 76.9699C38.2712 76.966 38.2166 76.9497 38.1374 76.9087C38.0981 76.9289 38.0831 76.9386 38.0429 76.951C37.8055 77.0233 28.6665 76.9927 27.7294 76.9718C27.6208 76.9692 27.5515 76.9627 27.4533 76.9165C27.4246 76.9302 27.4025 76.9425 27.3723 76.951C27.0661 77.0389 24.9041 76.9757 24.4457 76.9757L21.0762 76.9751C20.4974 76.9751 19.9085 76.9953 19.3308 76.9699C19.2431 76.966 19.1904 76.9503 19.1139 76.9106C19.0816 76.9262 19.0549 76.9412 19.0205 76.9516C18.7137 77.0409 15.0874 76.9744 14.5304 76.9751C9.81533 76.9757 5.09141 77.0304 0.377561 76.9731C0.233276 76.9712 0.128779 76.9764 0 76.908V48.4489V26.6678V26.5967V0ZM57.8143 20.2258L57.8144 23.0741L69.3133 23.0675C69.3191 24.4963 69.3315 25.9269 69.3151 27.3555C64.293 27.3555 59.2652 27.3068 54.2436 27.3604L54.2417 33.7535L59.1062 33.7559C59.9614 33.7557 60.8427 33.7126 61.6935 33.7718L61.696 41.3801C60.2163 41.308 58.719 41.4405 57.244 41.3593C57.2422 40.2501 57.2378 39.1525 57.3029 38.0449C56.1943 38.0324 55.0856 38.0327 53.9769 38.046C53.9757 42.1594 54.0277 46.2792 53.9701 50.392C53.0682 50.425 52.1661 50.4318 51.2637 50.4124C50.8999 50.4057 50.5119 50.4185 50.1515 50.3753L50.1525 53.7011C50.1522 54.3175 50.2299 55.0258 50.0897 55.6248C49.5588 55.8792 47.0396 55.6455 46.3142 55.6351L46.3117 59.163C45.0352 59.1579 43.7586 59.159 42.4821 59.1663L42.4731 72.864C42.5419 72.8939 42.5945 72.9141 42.6716 72.9187C43.1149 72.948 46.2405 72.9779 46.4807 72.8998C46.5094 72.89 46.5337 72.875 46.56 72.8607L46.5671 75.5424C46.5679 75.9879 46.6061 76.4678 46.5579 76.9087C46.6998 76.9849 46.8365 76.9725 46.9957 76.9731L69.9443 76.9744L75.0441 76.9738C75.4011 76.9738 76.6171 77.0311 76.8997 76.9536C76.9418 76.9425 76.9649 76.9276 77 76.908V20.2955L64.3759 20.2976L60.6983 20.2985C59.7333 20.3004 58.7749 20.3275 57.8143 20.2258ZM0 0V26.5967C0.721893 26.5576 1.45762 26.5829 2.18101 26.5826C2.9363 26.5823 3.70129 26.5588 4.45531 26.598C4.49386 27.4344 4.46242 28.2835 4.46245 29.1214L4.46223 33.8972C5.13973 33.8558 5.8366 33.8838 6.51699 33.8827C6.96055 33.882 7.4488 33.8437 7.8878 33.8952C8.06123 33.9156 8.21957 33.9425 8.35843 34.0453C8.31824 34.224 8.25268 34.4048 8.2268 34.5851C8.18851 34.8518 8.22168 35.1604 8.22217 35.4326L8.2235 37.3206L12.0566 37.3214L12.059 40.8827L18.9528 40.88C18.9564 40.2429 18.9564 39.6059 18.9527 38.9689C18.9483 38.5923 18.8972 38.163 18.9623 37.7913C18.9834 37.6707 19.0275 37.5535 19.1219 37.4653C19.2251 37.3688 19.3689 37.3318 19.5105 37.3162C19.8694 37.2765 20.2636 37.3182 20.6267 37.3202L22.7944 37.321L22.7943 33.7602C24.7538 33.7192 26.7231 33.756 28.6837 33.7553C28.5635 32.5867 28.6286 31.3827 28.6303 30.2091C30.5126 30.143 32.4127 30.1942 34.2971 30.1898C34.2986 29.8668 34.2499 29.542 34.2452 29.2179C34.2327 28.3442 34.2449 27.4688 34.2449 26.595C35.5278 26.5039 36.8524 26.6105 38.134 26.6422L38.1372 3.60975L41.962 3.60736C41.9819 2.79572 41.9643 1.98007 41.9644 1.16798C41.9645 0.827117 41.9142 0.408907 42.001 0.0792739L42.0894 0.0359359L42.0891 0H0ZM0.0428028 48.4568L0 48.4489V76.908C0.128779 76.9764 0.233276 76.9712 0.377561 76.9731C5.09141 77.0304 9.81533 76.9757 14.5304 76.9751C15.0874 76.9744 18.7137 77.0409 19.0205 76.9516C19.0549 76.9412 19.0816 76.9262 19.1139 76.9106C19.0511 75.6225 19.1074 74.3071 19.1074 73.0163C19.126 70.0316 19.119 67.0469 19.0865 64.0622C19.0818 63.7841 19.2179 62.9342 19.1582 62.746C18.743 62.6849 18.2732 62.7228 17.8495 62.7233C17.0256 62.7272 16.2017 62.7261 15.3778 62.72C15.3407 61.5385 15.3777 60.3465 15.3791 59.1638C14.1024 59.1465 12.8234 59.1596 11.5464 59.1579C11.5109 57.9761 11.5411 56.7862 11.5403 55.6035C11.1762 55.5973 10.8235 55.6827 10.4611 55.7053C10.0137 55.7333 8.07329 55.7964 7.773 55.6076C7.61171 55.1585 7.70989 52.7206 7.71487 52.0351C6.44406 52.1347 5.13977 52.0872 3.86409 52.0784C3.90992 51.6613 3.88192 51.2193 3.88131 50.7993L3.87657 48.4816C3.01769 48.4715 2.15754 48.4823 1.2985 48.4837C0.891012 48.4843 0.444251 48.5181 0.0428028 48.4568ZM31.2314 62.7282C31.2415 63.9099 31.2699 65.1021 31.2286 66.2828C29.9759 66.2906 28.7007 66.2268 27.4516 66.2977C27.3788 66.3765 27.4535 66.8252 27.4613 66.949C27.5213 67.9037 27.4714 68.8831 27.4741 69.8404L23.5609 69.8436L23.56 72.8607C23.5732 72.8679 23.5858 72.8763 23.5995 72.8822C23.7326 72.9415 27.2379 72.974 27.4675 72.8939C27.4732 73.737 27.4736 74.5801 27.4686 75.4232C27.4697 75.9084 27.5163 76.4359 27.4533 76.9165C27.5515 76.9627 27.6208 76.9692 27.7294 76.9718C28.6665 76.9927 37.8055 77.0233 38.0429 76.951C38.0831 76.9386 38.0981 76.9289 38.1374 76.9087C38.1106 75.7567 38.1337 74.6008 38.1337 73.4481L38.1301 66.525C36.8383 66.5068 35.5419 66.5296 34.2499 66.5452C34.2262 65.9585 34.245 65.3626 34.2417 64.775C34.238 64.1059 34.1793 63.3883 34.3167 62.7297C33.2885 62.7183 32.2596 62.7267 31.2314 62.7282ZM45.806 5.27623C45.8004 6.06497 45.8013 6.8537 45.8085 7.64242C45.8076 8.27253 45.7857 8.90923 45.8116 9.53869L50.3915 9.54371C50.4281 9.0549 50.4054 8.55288 50.4051 8.06252L50.4036 5.27887C48.8711 5.26524 47.2075 5.27887 45.806 5.27623ZM73.1248 0L73.1191 0.0388231C73.2391 0.466286 73.1556 2.96918 73.1542 3.60649L77 3.61255V0H73.1248ZM42.0891 0L42.0894 0.0359359C43.9791 0.1086 45.8952 0.0453776 47.7879 0.0454834L58.8983 0.0464999L68.351 0.0473141L71.4599 0.0472367C72.0083 0.0471347 72.5714 0.0673436 73.1191 0.0388231L73.1248 0H42.0891ZM0 26.6678V48.4489L0.0428028 48.4568L0.0423477 32.8458L0.04549 28.7109C0.0458774 28.0672 0.130569 27.2978 0 26.6678Z" fill="white"/>
</svg>
