<svg width="224" height="224" viewBox="0 0 224 224" fill="none" xmlns="http://www.w3.org/2000/svg">
<path d="M166.409 138.556V107.222H171.632V102H176.854V96.7778H182.076V91.5556H187.298V86.3333H192.52V81.1111H197.743V75.8889H208.187V128.111H218.632V138.556H208.187V149H197.743V138.556H166.409ZM176.854 128.111H197.743V96.7778H192.52V102H187.298V107.222H182.076V112.444H176.854V128.111Z" fill="#FF4A58"/>
<path d="M95.8537 133.333H101.076V138.556H121.965V133.333H127.187V91.5556H121.965V86.3333H101.076V91.5556H95.8537V133.333ZM90.6315 138.556H85.4093V86.3333H90.6315V81.1111H95.8537V75.8889H127.187V81.1111H132.409V86.3333H137.632V138.556H132.409V143.778H127.187V149H95.8537V143.778H90.6315V138.556Z" fill="#14E0D1"/>
<path d="M5.40929 138.556V107.222H10.6315V102H15.8537V96.7778H21.076V91.5556H26.2982V86.3333H31.5204V81.1111H36.7426V75.8889H47.1871V128.111H57.6315V138.556H47.1871V149H36.7426V138.556H5.40929ZM15.8537 128.111H36.7426V96.7778H31.5204V102H26.2982V107.222H21.076V112.444H15.8537V128.111Z" fill="#FF4A58"/>
<path fill-rule="evenodd" clip-rule="evenodd" d="M66.0814 0.194987C64.8416 0.539286 64.4564 3.09376 64.509 10.628C64.5382 14.7625 64.277 17.106 63.6176 18.6346C62.9992 20.0667 62.8899 20.9219 63.2927 21.1709C63.7088 21.4275 63.696 21.7929 63.2535 22.326C62.783 22.893 62.7789 24.3637 63.2383 27.7202C63.5861 30.2589 63.8357 33.5014 63.793 34.9265C63.7503 36.3511 63.7661 43.1377 63.8287 50.0067C63.9017 58.0828 63.7252 62.713 63.3295 63.1088C62.9794 63.4589 59.515 63.7699 55.2433 63.8348C45.9572 63.9756 17.5844 63.1012 16.3733 62.6359C15.8823 62.4476 15.0383 62.7352 14.4982 63.2754C13.7226 64.051 12.913 64.1767 10.6399 63.8751C9.05817 63.6652 6.01696 63.6728 3.88174 63.8915L0 64.289L0.289915 66.861C0.448902 68.2756 0.763957 69.6171 0.988994 69.8422C1.21403 70.0678 4.86138 70.2969 9.09441 70.3525C13.3274 70.408 17.547 70.743 18.4717 71.0966C19.6232 71.5374 23.5868 71.6122 31.0387 71.3334C39.5703 71.0148 57.4727 70.8838 63.1968 71.0984C63.8766 71.1235 63.9426 72.7269 63.5948 80.7849C63.1945 90.0518 63.2289 90.5241 64.4453 92.4922C65.4489 94.1167 65.5682 94.7182 65.017 95.3823C64.1969 96.3707 63.4131 114.54 63.6551 126.953C63.7427 131.454 63.8158 138.03 63.8175 141.567C63.8193 145.103 64.0496 149.378 64.3296 151.066C64.7493 153.597 64.6891 154.135 63.9865 154.135C63.4715 154.135 63.2663 154.48 63.4686 155.006C63.6995 155.607 63.3114 155.984 62.216 156.223C61.3433 156.414 60.2707 156.683 59.8335 156.821C59.3191 156.982 59.1578 156.758 59.3764 156.187C59.5839 155.646 59.3829 155.304 58.8574 155.304C58.3851 155.304 57.9987 155.572 57.9987 155.9C57.9987 156.286 55.618 156.41 51.2769 156.252C47.5798 156.117 44.555 156.237 44.555 156.518C44.555 156.798 43.8752 156.77 43.0446 156.454C42.214 156.138 41.2817 156.036 40.9725 156.227C40.6639 156.418 32.0154 156.579 21.7538 156.585C7.4531 156.593 2.95295 156.768 2.48359 157.333C1.24501 158.826 3.43576 159.481 10.475 159.722C22.3429 160.127 58.1916 160.148 60.3368 159.75C63.7544 159.116 63.9508 159.559 63.8403 167.643C63.786 171.627 63.7807 183.961 63.8287 195.053C63.8766 206.145 63.8859 217.127 63.8491 219.458C63.7836 223.629 63.8059 223.696 65.2741 223.696C66.8155 223.696 67.3258 222.813 66.0358 222.378C65.4548 222.182 65.4583 221.947 66.0515 221.227C66.5665 220.604 66.888 217.17 67.0873 210.172C67.2463 204.589 67.5233 199.298 67.7022 198.414C67.9056 197.411 67.7782 196.807 67.3626 196.807C66.9967 196.807 66.8249 196.6 66.9809 196.348C67.7139 195.162 68.0272 169.978 67.3632 165.605C66.7378 161.488 66.7676 160.901 67.6443 160.052C68.5509 159.175 68.6924 159.203 69.5311 160.435C70.4044 161.718 70.4798 161.729 71.5927 160.727C72.5519 159.864 73.6543 159.713 78.0866 159.836C81.2412 159.925 83.9475 159.713 84.7027 159.32C85.6572 158.822 86.6474 158.822 88.6149 159.317C91.9752 160.163 96.4549 160.165 98.873 159.322C100.316 158.82 101.126 158.838 102.321 159.402C103.45 159.935 109.068 160.188 122.587 160.315C145.364 160.529 151.479 160.938 151.621 162.259C151.676 162.774 151.78 167.009 151.851 171.671C151.922 176.333 152.082 183.086 152.206 186.678C152.33 190.27 152.282 193.116 152.099 193.003C151.915 192.89 151.87 193.699 151.999 194.802C152.141 196.021 151.979 196.807 151.584 196.807C151.228 196.807 150.936 197.085 150.936 197.426C150.936 197.766 151.172 197.899 151.462 197.72C151.761 197.535 152.013 200.844 152.048 205.431C152.107 213.216 152.228 215.104 153.032 220.854C153.387 223.395 153.538 223.586 155.43 223.893C157.93 224.299 160.121 223.518 160.403 222.122C160.521 221.541 160.282 219.269 159.872 217.074C159.366 214.36 159.313 212.734 159.708 211.997C160.53 210.461 160.392 205.884 159.4 201.775C158.362 197.478 158.359 197.391 159.265 197.391C159.826 197.391 159.984 194.836 159.946 186.431C159.904 177.247 159.732 175.156 158.885 173.526C157.916 171.663 157.919 171.57 158.951 171.3C159.786 171.081 160.023 170.467 160.008 168.568C159.996 167.22 159.787 165.807 159.544 165.428C159.3 165.048 159.343 164.588 159.639 164.404C159.936 164.221 160.049 163.575 159.89 162.968C159.732 162.362 159.953 161.638 160.383 161.361C160.813 161.084 165.505 160.808 170.809 160.749C176.114 160.689 183.61 160.594 187.468 160.538C191.326 160.481 198.954 160.447 204.419 160.462C214.924 160.491 216.448 160.419 220.236 159.72C222.416 159.317 222.671 159.072 223.368 156.711C224.584 152.594 224.127 152.147 219.184 152.607C216.871 152.821 214.388 153.385 213.665 153.858C212.112 154.876 210.556 154.983 210.556 154.072C210.556 153.716 210.943 153.573 211.414 153.754C211.886 153.935 212.428 153.832 212.618 153.524C212.808 153.217 212.75 152.954 212.49 152.94C212.23 152.926 210.855 152.69 209.435 152.416C207.68 152.078 206.182 152.151 204.759 152.646C201.715 153.704 197.697 154.246 197.697 153.597C197.697 153.295 198.289 152.96 199.012 152.855C199.736 152.749 194.804 152.681 188.053 152.703C177.319 152.738 175.579 152.873 174.196 153.782C172.402 154.959 171.394 154.627 171.394 152.86C171.394 151.858 171.246 151.776 170.525 152.375C170.012 152.8 169.03 152.939 168.131 152.714C167.259 152.494 166.254 152.622 165.785 153.012C165.156 153.534 164.964 153.526 164.964 152.974C164.964 152.56 164.574 152.406 164.041 152.61C162.872 153.058 160.288 152.434 160.288 151.702C160.288 151.398 159.631 150.182 158.827 148.999C157.943 147.699 157.37 146.036 157.376 144.792L157.386 142.736L158.653 144.782C160.301 147.442 160.234 147.368 160.624 146.979C160.808 146.795 160.483 145.303 159.901 143.664C159.036 141.227 158.974 140.472 159.565 139.526C159.963 138.888 160.288 136.781 160.288 134.842C160.288 131.318 160.287 131.315 158.739 131.704C157.197 132.091 157.191 132.078 157.592 129.523C157.815 128.109 158.489 126.559 159.09 126.076C160 125.346 160.112 124.759 159.759 122.569C159.525 121.122 159.061 119.412 158.728 118.769C158.32 117.984 158.298 115.793 158.662 112.088C159.101 107.601 159.039 106.188 158.327 104.489C157.845 103.341 157.3 99.719 157.115 96.4403C156.828 91.3477 156.916 90.4013 157.716 89.9536C158.713 89.3959 158.7 88.8692 157.432 78.4356C157.12 75.8636 156.827 73.2331 156.782 72.5901L156.699 71.421L156.197 72.5901C155.717 73.7054 155.692 73.699 155.653 72.444C155.614 71.1913 155.828 71.1276 160.142 71.1077C162.633 71.096 178.021 71.0843 194.336 71.082L224 71.0779V69.5704C224 68.2966 223.864 68.1756 223.123 68.7906C222.462 69.3395 222.048 69.3541 221.442 68.8502C220.944 68.4375 216.979 68.0745 211.066 67.9009C205.803 67.746 200.51 67.4654 199.304 67.2766C197.847 67.0486 197.112 67.1585 197.112 67.6045C197.112 67.9734 196.896 68.1411 196.631 67.9775C196.367 67.8138 190.085 67.5005 182.672 67.2813C172.666 66.9855 168.222 67.0755 165.423 67.632C160.993 68.5129 158.535 68.102 158.535 66.4798C158.535 65.703 159.012 65.3043 160.097 65.1757C162.076 64.9419 162.662 63.5261 160.775 63.5384C159.68 63.546 159.584 63.6594 160.288 64.1142C161.034 64.5964 161.01 64.6824 160.124 64.69C159.551 64.6946 158.931 64.3042 158.746 63.8219C158.561 63.3397 158.147 62.9451 157.825 62.9451C157.504 62.9451 157.416 63.4057 157.63 63.968C157.928 64.7513 157.858 64.8308 157.331 64.3071C156.951 63.9312 156.445 62.5505 156.205 61.2382C155.869 59.3992 155.952 58.8532 156.567 58.8532C157.491 58.8532 157.651 57.8765 156.776 57.5848C156.39 57.4562 156.172 47.8012 156.145 29.7761C156.118 11.7398 155.898 2.03631 155.51 1.79665C155.183 1.59439 154.54 1.80425 154.082 2.26312C153.442 2.90262 153.17 5.74527 152.913 14.4603C152.73 20.7103 152.457 26.0221 152.308 26.2635C152.158 26.5055 152.249 26.7025 152.509 26.7025C152.769 26.7019 152.839 29.1348 152.665 32.1096C152.49 35.0838 152.435 42.5151 152.541 48.6236C152.802 63.5939 152.749 66.6266 152.217 67.1585C151.427 67.9488 146.01 68.7491 145.412 68.1645C144.631 67.4005 140.612 67.4882 139.317 68.2972C138.482 68.8186 137.384 68.766 134.503 68.0681C130.584 67.1188 126.602 67.1725 125.585 68.1891C124.725 69.0495 122.519 68.9314 121.562 67.9739C120.992 67.4034 119.263 67.1591 115.822 67.162C113.113 67.1644 109.45 67.0434 107.682 66.8925C105.914 66.7423 103.729 66.8306 102.827 67.0889C101.924 67.3473 100.609 67.3269 99.9041 67.0428C98.731 66.5699 98.7707 66.5225 100.376 66.4804C101.34 66.4553 103.102 66.0958 104.291 65.6819C105.91 65.1179 107.744 65.0617 111.597 65.4592C115.461 65.8579 117.252 65.8024 118.788 65.2371C119.913 64.8227 122.543 64.4374 124.633 64.3813C126.723 64.3246 129.857 64.0703 131.598 63.8161C134.463 63.3969 134.726 63.4495 134.373 64.3685C134.019 65.292 134.338 65.3487 137.93 64.998C140.1 64.7858 143.772 64.5888 146.088 64.5602C148.534 64.5298 150.402 64.2416 150.543 63.8728C150.783 63.2485 121.68 62.5447 103.298 62.73C99.1191 62.7721 90.3585 62.8668 83.8306 62.9404C77.3022 63.0141 71.7786 62.8907 71.5559 62.6662C71.0199 62.1273 71.3127 27.2724 71.9089 20.6723C72.2713 16.6535 72.1971 15.2652 71.5711 14.3715C70.9942 13.5478 70.8668 12.2028 71.1181 9.58868C71.3104 7.58835 71.2631 4.63638 71.0129 3.02888C70.5885 0.303712 70.4395 0.0997062 68.8081 0.0149467C67.846 -0.0353245 66.6191 0.0453424 66.0814 0.194987ZM67.7408 6.63379C67.5263 6.84773 67.3509 7.29491 67.3509 7.62752C67.3509 7.99344 67.6233 7.95896 68.0424 7.53984C68.4229 7.1593 68.5983 6.71212 68.4323 6.5461C68.2663 6.38009 67.9547 6.41926 67.7408 6.63379ZM67.9354 9.35311C67.9354 9.8149 68.3142 10.507 68.7777 10.8916C69.2406 11.2757 69.4756 11.9655 69.2997 12.4243C69.1232 12.8832 69.2705 13.2585 69.6264 13.2585C69.9824 13.2585 70.2735 12.7324 70.2735 12.0894C70.2735 11.4464 70.0104 10.9203 69.689 10.9203C69.3675 10.9203 69.1045 10.5415 69.1045 10.0779C69.1045 9.6144 68.8414 9.07311 68.5199 8.87436C68.1985 8.67561 67.9354 8.89073 67.9354 9.35311ZM67.9763 21.8461C67.9541 22.872 68.1985 23.8739 68.5199 24.0726C69.2208 24.5058 69.2208 22.7814 68.5199 21.1499C68.0968 20.1643 68.0114 20.2736 67.9763 21.8461ZM67.4614 31.6717C67.4766 32.3148 67.6899 33.63 67.9354 34.5945L68.3814 36.3481L68.4095 34.5945C68.4252 33.63 68.2119 32.3148 67.9354 31.6717L67.4333 30.5026L67.4614 31.6717ZM67.3971 41.073C67.4251 41.754 67.5637 41.8926 67.7501 41.4267C67.9191 41.0046 67.898 40.5002 67.704 40.3061C67.5099 40.112 67.372 40.4569 67.3971 41.073ZM68.7497 51.0098C68.9449 51.5183 69.1045 52.0596 69.1045 52.2134C69.1045 52.3665 69.3558 52.3367 69.6632 52.1467C70.3419 51.727 69.7971 50.085 68.9794 50.085C68.6579 50.085 68.5544 50.5012 68.7497 51.0098ZM75.5341 65.3125L73.4883 66.4617L75.8263 66.0736C77.1123 65.8602 78.9535 65.3423 79.9179 64.9226L81.6714 64.1598L79.6257 64.1615C78.5005 64.1627 76.6593 64.6806 75.5341 65.3125ZM92.3294 64.4643C92.0933 64.7005 91.9004 65.3756 91.9004 65.9654C91.9004 66.8224 92.3592 67.0369 94.1905 67.0369C95.4501 67.0369 96.9629 67.2041 97.5515 67.4081C98.4925 67.7337 98.4808 67.6653 97.4533 66.8417C96.6075 66.1642 96.5186 65.9 97.1318 65.8865C97.6608 65.8748 97.7707 65.6656 97.424 65.3289C96.6572 64.5847 92.8543 63.9394 92.3294 64.4643ZM11.2378 65.1588C11.2378 65.4119 11.7639 65.6586 12.4068 65.7071C13.0498 65.7556 13.5759 65.5487 13.5759 65.247C13.5759 64.9454 13.0498 64.6987 12.4068 64.6987C11.7639 64.6987 11.2378 64.9057 11.2378 65.1588ZM50.9846 65.2833C50.2353 65.7673 50.2563 65.8515 51.1307 65.8591C51.6936 65.8637 52.1536 65.6048 52.1536 65.2833C52.1536 64.5701 52.0876 64.5701 50.9846 65.2833ZM156.197 66.55C156.197 67.1392 156.591 67.6215 157.073 67.6215C157.556 67.6215 157.95 67.1392 157.95 66.55C157.95 65.9602 157.556 65.4779 157.073 65.4779C156.591 65.4779 156.197 65.9602 156.197 66.55ZM7.43849 66.4524C5.88194 66.8487 6.00059 66.9066 8.49587 66.9679C10.2365 67.0106 11.1694 66.8142 10.9456 66.4524C10.5434 65.8018 9.99631 65.8018 7.43849 66.4524ZM21.1745 66.4524C20.4836 66.899 20.6075 67.0124 21.759 66.9866C22.5627 66.9691 23.7464 66.7289 24.3893 66.4524C25.3929 66.021 25.3105 65.9456 23.8048 65.9181C22.8404 65.9 21.6567 66.1408 21.1745 66.4524ZM81.8369 66.5897C82.8229 67.065 83.3484 67.055 83.8534 66.55C84.3731 66.0303 84.0563 65.8772 82.519 65.9076C80.6252 65.9444 80.5837 65.9859 81.8369 66.5897ZM31.4035 67.0369L30.2344 67.539L31.4035 67.5466C32.0464 67.5507 33.6246 67.3362 34.9105 67.0702L37.2486 66.5868L34.9105 66.5605C33.6246 66.5465 32.0464 66.7604 31.4035 67.0369ZM40.9386 67.4362C41.36 67.6051 41.8645 67.5841 42.0585 67.39C42.2526 67.1959 41.9077 67.058 41.2916 67.0831C40.6107 67.1112 40.4722 67.2497 40.9386 67.4362ZM88.8317 67.4239C89.2339 67.5864 89.8914 67.5864 90.293 67.4239C90.6951 67.262 90.3661 67.1293 89.5624 67.1293C88.7587 67.1293 88.4302 67.262 88.8317 67.4239ZM92.8765 70.3981C91.9624 71.3082 90.76 71.3994 81.9929 71.2258C72.8459 71.0446 72.1141 71.1077 71.8166 72.1026C71.6406 72.6924 71.6576 78.4356 71.8546 84.8656C72.0516 91.2957 72.1942 99.4501 72.1708 102.987C72.0825 116.694 71.5763 137.544 71.2987 138.936C71.1385 139.74 70.9696 140.792 70.9234 141.275C70.8492 142.054 70.7773 142.054 70.2735 141.275C69.9619 140.792 69.703 139.016 69.6977 137.329C69.6907 134.879 69.8813 134.26 70.6411 134.26C71.4571 134.26 71.529 133.821 71.1432 131.191C70.896 129.504 70.6476 126.412 70.5909 124.323C70.5348 122.233 70.1496 119.602 69.7351 118.477C69.1699 116.941 69.1144 115.15 69.513 111.286C69.9105 107.432 69.8544 105.598 69.2903 103.979C68.8765 102.79 68.5258 101.16 68.5112 100.356C68.4872 99.0643 68.4141 99.0152 67.8781 99.9359C67.4795 100.621 67.4614 101.621 67.8261 102.859C68.1301 103.894 68.2534 106.056 68.0985 107.663C67.9442 109.271 67.8296 113.025 67.8442 116.007C67.8583 118.989 67.649 121.292 67.3796 121.125C67.1095 120.959 66.7296 121.237 66.5355 121.744C65.9422 123.289 66.1404 124.907 66.9225 124.907C67.8618 124.907 67.7852 132.941 66.8295 134.726C66.0229 136.233 65.9878 138.748 66.7664 139.229C67.5023 139.683 67.5409 145.2 66.8102 145.464C66.4817 145.582 66.4981 146.808 66.8517 148.581C67.1726 150.189 67.4485 152.096 67.4661 152.819C67.483 153.543 67.7928 154.143 68.1546 154.152C68.5164 154.162 68.3329 154.449 67.7466 154.79C66.7354 155.378 66.7325 155.467 67.6911 156.526C68.9496 157.916 69.6749 157.949 69.7351 156.619C69.7626 156.008 69.9 155.89 70.0759 156.327C70.2437 156.742 71.2975 157.032 72.5139 156.999C74.4445 156.947 74.5124 156.894 73.196 156.473C71.8224 156.033 71.8505 156.001 73.6689 155.947C74.7327 155.915 75.4645 155.664 75.295 155.39C75.1255 155.116 76.754 154.875 78.9137 154.854C81.0735 154.833 84.3713 154.637 86.2417 154.419C89.1403 154.08 89.7582 154.179 90.4198 155.085C91.1283 156.053 91.5035 156.084 94.671 155.429C96.5817 155.034 98.9812 154.879 100.002 155.083C101.167 155.316 102.821 155.087 104.443 154.467C106.628 153.633 107.866 153.564 112.469 154.022C116.649 154.438 118.318 154.387 119.665 153.799C122.408 152.601 127.069 152.506 126.825 153.652C126.675 154.354 131.488 155.659 132.071 155.075C132.246 154.899 131.927 154.049 131.361 153.185C130.407 151.728 130.405 151.643 131.33 151.998C131.879 152.209 134.031 152.381 136.113 152.381C138.822 152.381 139.781 152.573 139.483 153.054C138.921 153.963 143.814 153.32 144.723 152.366C145.228 151.836 144.902 151.751 143.337 152.006L141.292 152.338L143.191 151.691C144.474 151.253 145.708 151.225 146.991 151.605L148.89 152.168L145.968 153.709C143.199 155.168 143.137 155.25 144.799 155.267C145.763 155.277 147.604 154.686 148.89 153.956C151.219 152.632 151.229 152.612 151.321 148.85C151.371 146.773 151.587 144.022 151.799 142.736C152.318 139.605 152.324 139.075 151.882 136.014C151.604 134.091 151.656 133.698 152.078 134.552C152.489 135.383 152.554 134.667 152.305 132.072C152.068 129.601 152.184 128.147 152.665 127.567C153.058 127.094 153.169 126.379 152.913 125.966C151.642 123.909 151.884 105.981 153.238 101.91C153.784 100.267 153.811 99.4905 153.337 99.0164C152.473 98.1524 152.512 91.6832 153.401 88.3595C153.96 86.2691 153.96 85.4549 153.401 84.5593C152.56 83.2125 152.454 79.1996 153.238 78.4064C153.582 78.0597 153.527 76.5551 153.092 74.404L152.397 70.9569L124.39 70.8967C102.547 70.8499 96.3281 70.6757 96.1381 70.1058C95.7874 69.0536 94.073 69.2073 92.8765 70.3981ZM68.7216 75.2241C68.8666 76.3511 69.3844 78.1924 69.8737 79.3159L70.7627 81.3584L70.7861 79.3124C70.7984 78.1872 70.2805 76.3459 69.634 75.2206L68.4591 73.1747L68.7216 75.2241ZM68.2458 81.8219C67.9956 82.3983 67.9553 83.0343 68.1552 83.2348C68.7491 83.8281 69.2278 82.9945 68.9542 81.8424C68.7122 80.8212 68.6807 80.8206 68.2458 81.8219ZM156.247 83.7948C156.219 85.1351 156.037 86.6473 155.842 87.1559C155.647 87.6645 155.748 88.0807 156.068 88.0807C156.859 88.0807 157.303 84.6692 156.748 82.8437C156.364 81.5799 156.29 81.7214 156.247 83.7948ZM67.4433 89.2498C67.4433 90.0535 67.576 90.3826 67.7379 89.9804C67.9004 89.5789 67.9004 88.9212 67.7379 88.5191C67.576 88.1175 67.4433 88.446 67.4433 89.2498ZM67.9541 93.4468C67.9641 94.5142 68.3516 95.8885 68.8145 96.4999C69.5686 97.4966 69.6954 97.5129 70.0239 96.656C70.2261 96.1293 70.4307 94.8398 70.4786 93.7894C70.5499 92.2222 70.3302 91.8469 69.2506 91.6932C68.1102 91.5312 67.9378 91.7651 67.9541 93.4468ZM67.3509 97.1412C67.3509 97.6234 67.4544 98.018 67.5806 98.018C67.7069 98.018 67.9617 97.6234 68.147 97.1412C68.3317 96.6589 68.2283 96.2643 67.9173 96.2643C67.6058 96.2643 67.3509 96.6589 67.3509 97.1412ZM154.452 128.853C154.457 129.094 154.683 129.642 154.955 130.071C155.358 130.707 155.511 130.69 155.783 129.982C155.966 129.504 155.959 128.956 155.766 128.764C155.275 128.272 154.441 128.329 154.452 128.853ZM70.7411 145.659C70.5628 147.588 70.6248 149.553 70.879 150.026C71.6371 151.436 72.2252 146.87 71.6085 144.36L71.0655 142.151L70.7411 145.659ZM173.44 152.966C173.638 153.287 173.917 153.55 174.059 153.55C174.201 153.55 174.317 153.287 174.317 152.966C174.317 152.644 174.038 152.381 173.698 152.381C173.357 152.381 173.241 152.644 173.44 152.966ZM83.425 155.951C81.8217 156.302 81.8801 156.34 84.1077 156.404C85.448 156.442 86.9601 156.632 87.4686 156.828C87.9772 157.023 88.3933 156.921 88.3933 156.601C88.3933 155.833 85.6216 155.47 83.425 155.951ZM164.088 155.919C161.817 156.457 170.134 156.698 184.497 156.51C186.077 156.49 187.221 156.324 187.039 156.141C186.537 155.639 166.099 155.441 164.088 155.919ZM209.971 156.182C209.524 156.72 209.668 156.994 210.513 157.215C212.411 157.712 221.722 156.946 221.511 156.311C221.211 155.412 210.706 155.295 209.971 156.182ZM189.959 156.302C190.686 156.441 191.738 156.436 192.297 156.29C192.856 156.144 192.261 156.029 190.975 156.036C189.689 156.042 189.232 156.162 189.959 156.302ZM128.725 157.642C128.725 157.963 128.972 158.226 129.275 158.226C129.577 158.226 129.987 157.963 130.186 157.642C130.385 157.32 130.137 157.057 129.636 157.057C129.135 157.057 128.725 157.32 128.725 157.642ZM156.153 167.189C156.081 175.519 156.103 180.845 156.222 184.093L156.334 187.162L156.827 184.239C157.373 181.002 157.162 163.088 156.57 162.497C156.365 162.291 156.177 164.403 156.153 167.189ZM156.356 190.961C156.356 192.408 156.47 193 156.609 192.276C156.748 191.553 156.748 190.37 156.609 189.646C156.47 188.922 156.356 189.514 156.356 190.961ZM155.433 210.29C154.921 212.246 155.73 220.773 156.426 220.771C157.435 220.769 157.515 209.849 156.508 209.463C156.065 209.293 155.6 209.65 155.433 210.29ZM157.95 211.81C157.95 213.526 158.656 213.236 158.936 211.405C159.033 210.77 158.85 210.251 158.531 210.251C158.211 210.251 157.95 210.953 157.95 211.81Z" fill="white"/>
</svg>
