<svg width="450" height="450" viewBox="0 0 384 384" fill="none" xmlns="http://www.w3.org/2000/svg">
<path fill-rule="evenodd" clip-rule="evenodd" d="M113.054 0.333559C110.933 0.922544 110.274 5.29243 110.364 18.1811C110.414 25.2539 109.967 29.2628 108.839 31.8777C107.781 34.3277 107.594 35.7906 108.283 36.2166C108.995 36.6556 108.973 37.2806 108.216 38.1926C107.411 39.1625 107.404 41.6785 108.19 47.4203C108.785 51.7632 109.212 57.31 109.139 59.748C109.066 62.1849 109.093 73.7946 109.2 85.5453C109.325 99.3609 109.023 107.282 108.346 107.959C107.747 108.558 101.82 109.09 94.512 109.201C78.625 109.442 30.084 107.946 28.012 107.15C27.172 106.828 25.728 107.32 24.804 108.244C23.477 109.571 22.092 109.786 18.203 109.27C15.497 108.911 10.294 108.924 6.641 109.298L0 109.978L0.495995 114.378C0.767995 116.797 1.307 119.092 1.692 119.477C2.077 119.863 8.317 120.255 15.559 120.35C22.801 120.445 30.02 121.018 31.602 121.623C33.572 122.377 40.353 122.505 53.102 122.028C67.698 121.483 98.326 121.259 108.119 121.626C109.282 121.669 109.395 124.412 108.8 138.197C108.115 154.049 108.174 154.857 110.255 158.224C111.972 161.003 112.176 162.032 111.233 163.168C109.83 164.859 108.489 195.94 108.903 217.176C109.053 224.876 109.178 236.125 109.181 242.175C109.184 248.225 109.578 255.538 110.057 258.425C110.775 262.755 110.672 263.675 109.47 263.675C108.589 263.675 108.238 264.265 108.584 265.165C108.979 266.194 108.315 266.838 106.441 267.247C104.948 267.574 103.113 268.034 102.365 268.269C101.485 268.545 101.209 268.162 101.583 267.185C101.938 266.261 101.594 265.675 100.695 265.675C99.887 265.675 99.226 266.134 99.226 266.695C99.226 267.354 95.153 267.568 87.726 267.297C81.401 267.067 76.226 267.272 76.226 267.751C76.226 268.231 75.063 268.182 73.642 267.642C72.221 267.103 70.626 266.927 70.097 267.254C69.569 267.58 54.773 267.856 37.217 267.866C12.751 267.879 5.052 268.179 4.249 269.146C2.13 271.7 5.878 272.82 17.921 273.232C38.225 273.926 99.556 273.961 103.226 273.281C109.073 272.196 109.409 272.954 109.22 286.783C109.127 293.598 109.118 314.698 109.2 333.673C109.282 352.647 109.298 371.434 109.235 375.422C109.123 382.557 109.161 382.671 111.673 382.671C114.31 382.671 115.183 381.16 112.976 380.418C111.982 380.083 111.988 379.68 113.003 378.449C113.884 377.382 114.434 371.508 114.775 359.537C115.047 349.986 115.521 340.935 115.827 339.423C116.175 337.707 115.957 336.673 115.246 336.673C114.62 336.673 114.326 336.32 114.593 335.889C115.847 333.859 116.383 290.778 115.247 283.297C114.177 276.254 114.228 275.249 115.728 273.797C117.279 272.296 117.521 272.345 118.956 274.452C120.45 276.647 120.579 276.665 122.483 274.952C124.124 273.476 126.01 273.217 133.593 273.428C138.99 273.579 143.62 273.217 144.912 272.544C146.545 271.693 148.239 271.692 151.605 272.539C157.354 273.987 165.018 273.991 169.155 272.549C171.623 271.689 173.01 271.721 175.054 272.685C176.985 273.597 186.597 274.03 209.726 274.247C248.694 274.613 259.155 275.313 259.398 277.573C259.492 278.453 259.669 285.699 259.791 293.674C259.913 301.649 260.186 313.201 260.399 319.346C260.611 325.491 260.528 330.36 260.215 330.166C259.901 329.972 259.824 331.357 260.044 333.243C260.288 335.329 260.01 336.673 259.335 336.673C258.725 336.673 258.226 337.15 258.226 337.732C258.226 338.314 258.63 338.541 259.125 338.236C259.637 337.919 260.068 343.579 260.128 351.426C260.23 364.743 260.436 367.973 261.812 377.81C262.42 382.156 262.678 382.483 265.914 383.008C270.192 383.702 273.94 382.367 274.423 379.979C274.624 378.985 274.215 375.099 273.514 371.343C272.648 366.701 272.558 363.919 273.233 362.659C274.639 360.031 274.403 352.201 272.706 345.172C270.931 337.821 270.926 337.673 272.476 337.673C273.435 337.673 273.706 333.302 273.641 318.923C273.569 303.212 273.275 299.635 271.826 296.847C270.168 293.661 270.173 293.501 271.938 293.039C273.367 292.665 273.773 291.615 273.746 288.366C273.726 286.06 273.369 283.643 272.952 282.993C272.535 282.344 272.608 281.556 273.116 281.242C273.623 280.929 273.816 279.823 273.545 278.786C273.274 277.748 273.653 276.511 274.389 276.037C275.124 275.562 283.151 275.091 292.226 274.989C301.301 274.887 314.126 274.724 320.726 274.628C327.326 274.531 340.376 274.473 349.726 274.498C367.698 274.548 370.305 274.425 376.786 273.229C380.516 272.54 380.953 272.12 382.145 268.082C384.225 261.04 383.444 260.275 374.986 261.061C371.029 261.428 366.781 262.392 365.544 263.202C362.887 264.943 360.226 265.126 360.226 263.568C360.226 262.959 360.887 262.715 361.694 263.024C362.501 263.334 363.428 263.157 363.753 262.631C364.078 262.105 363.98 261.655 363.535 261.631C363.09 261.607 360.738 261.204 358.308 260.735C355.306 260.156 352.742 260.281 350.308 261.128C345.1 262.938 338.226 263.865 338.226 262.756C338.226 262.238 339.238 261.666 340.476 261.486C341.714 261.305 333.276 261.188 321.726 261.226C303.362 261.286 300.386 261.517 298.02 263.071C294.951 265.086 293.226 264.518 293.226 261.494C293.226 259.781 292.973 259.64 291.739 260.664C290.862 261.392 289.182 261.63 287.643 261.244C286.152 260.869 284.433 261.088 283.63 261.754C282.554 262.648 282.226 262.633 282.226 261.69C282.226 260.981 281.558 260.717 280.647 261.067C278.647 261.834 274.226 260.765 274.226 259.514C274.226 258.994 273.101 256.913 271.726 254.89C270.214 252.665 269.233 249.82 269.243 247.693L269.26 244.175L271.428 247.675C274.247 252.225 274.134 252.1 274.8 251.434C275.116 251.119 274.559 248.566 273.563 245.762C272.083 241.593 271.978 240.302 272.989 238.683C273.669 237.593 274.226 233.987 274.226 230.67C274.226 224.643 274.224 224.638 271.575 225.303C268.938 225.965 268.927 225.944 269.614 221.572C269.994 219.154 271.147 216.501 272.176 215.676C273.733 214.427 273.925 213.422 273.321 209.676C272.921 207.201 272.127 204.276 271.556 203.176C270.859 201.832 270.821 198.084 271.443 191.746C272.195 184.071 272.089 181.653 270.87 178.747C270.046 176.783 269.113 170.587 268.797 164.978C268.306 156.266 268.457 154.647 269.826 153.881C271.531 152.928 271.509 152.027 269.34 134.178C268.806 129.778 268.305 125.278 268.227 124.178L268.085 122.178L267.226 124.178C266.406 126.086 266.363 126.075 266.296 123.928C266.229 121.785 266.595 121.676 273.976 121.642C278.238 121.622 304.563 121.602 332.476 121.598L383.226 121.591V119.012C383.226 116.833 382.993 116.626 381.726 117.678C380.595 118.617 379.887 118.642 378.849 117.78C377.998 117.074 371.214 116.453 361.099 116.156C352.094 115.891 343.039 115.412 340.976 115.089C338.482 114.699 337.226 114.887 337.226 115.649C337.226 116.28 336.855 116.567 336.402 116.287C335.95 116.007 325.203 115.472 312.521 115.097C295.402 114.591 287.8 114.745 283.011 115.697C275.431 117.203 271.226 116.5 271.226 113.726C271.226 112.397 272.043 111.715 273.899 111.495C277.284 111.095 278.287 108.673 275.059 108.694C273.186 108.707 273.022 108.901 274.226 109.679C275.502 110.504 275.461 110.651 273.945 110.664C272.965 110.672 271.904 110.004 271.588 109.179C271.271 108.354 270.562 107.679 270.012 107.679C269.462 107.679 269.312 108.467 269.678 109.429C270.188 110.769 270.068 110.905 269.166 110.009C268.517 109.366 267.651 107.004 267.241 104.759C266.665 101.613 266.807 100.679 267.86 100.679C269.44 100.679 269.714 99.0079 268.217 98.509C267.557 98.289 267.183 81.7724 267.137 50.9372C267.092 20.083 266.715 3.48347 266.051 3.07348C265.492 2.72749 264.392 3.08649 263.608 3.87147C262.514 4.96544 262.048 9.82831 261.609 24.7369C261.295 35.4286 260.828 44.5154 260.573 44.9284C260.317 45.3424 260.472 45.6794 260.917 45.6794C261.362 45.6784 261.482 49.8402 261.184 54.9291C260.885 60.017 260.79 72.7296 260.972 83.1794C261.418 108.789 261.328 113.977 260.418 114.887C259.066 116.238 249.799 117.607 248.776 116.607C247.439 115.301 240.564 115.451 238.348 116.834C236.92 117.726 235.04 117.636 230.112 116.442C223.407 114.819 216.594 114.911 214.855 116.649C213.383 118.121 209.61 117.919 207.972 116.281C206.996 115.306 204.038 114.888 198.151 114.893C193.517 114.897 187.251 114.69 184.226 114.432C181.201 114.175 177.463 114.326 175.919 114.768C174.375 115.21 172.125 115.175 170.919 114.689C168.912 113.88 168.98 113.799 171.726 113.727C173.376 113.684 176.39 113.069 178.424 112.361C181.194 111.396 184.331 111.3 190.924 111.98C197.534 112.662 200.598 112.567 203.226 111.6C205.151 110.891 209.651 110.232 213.226 110.136C216.801 110.039 222.163 109.604 225.141 109.169C230.044 108.452 230.493 108.542 229.889 110.114C229.283 111.694 229.83 111.791 235.975 111.191C239.688 110.828 245.969 110.491 249.932 110.442C254.116 110.39 257.312 109.897 257.554 109.266C257.964 108.198 208.174 106.994 176.726 107.311C169.576 107.383 154.588 107.545 143.42 107.671C132.251 107.797 122.801 107.586 122.42 107.202C121.503 106.28 122.004 46.6543 123.024 35.3636C123.644 28.4888 123.517 26.1139 122.446 24.5849C121.459 23.176 121.241 20.875 121.671 16.4031C122 12.9812 121.919 7.93136 121.491 5.18143C120.765 0.519554 120.51 0.170565 117.719 0.025569C116.073 -0.0604287 113.974 0.0775662 113.054 0.333559ZM115.893 11.3483C115.526 11.7143 115.226 12.4792 115.226 13.0482C115.226 13.6742 115.692 13.6152 116.409 12.8982C117.06 12.2472 117.36 11.4823 117.076 11.1983C116.792 10.9143 116.259 10.9813 115.893 11.3483ZM116.226 16.0001C116.226 16.7901 116.874 17.9741 117.667 18.6321C118.459 19.2891 118.861 20.469 118.56 21.254C118.258 22.039 118.51 22.681 119.119 22.681C119.728 22.681 120.226 21.781 120.226 20.681C120.226 19.581 119.776 18.6811 119.226 18.6811C118.676 18.6811 118.226 18.0331 118.226 17.2401C118.226 16.4471 117.776 15.5212 117.226 15.1812C116.676 14.8412 116.226 15.2092 116.226 16.0001ZM116.296 37.3716C116.258 39.1265 116.676 40.8405 117.226 41.1805C118.425 41.9215 118.425 38.9715 117.226 36.1806C116.502 34.4947 116.356 34.6817 116.296 37.3716ZM115.415 54.1801C115.441 55.2801 115.806 57.53 116.226 59.18L116.989 62.1799L117.037 59.18C117.064 57.53 116.699 55.2801 116.226 54.1801L115.367 52.1802L115.415 54.1801ZM115.305 70.2627C115.353 71.4277 115.59 71.6647 115.909 70.8677C116.198 70.1457 116.162 69.2827 115.83 68.9507C115.498 68.6187 115.262 69.2087 115.305 70.2627ZM117.619 87.2613C117.953 88.1312 118.226 89.0572 118.226 89.3202C118.226 89.5822 118.656 89.5312 119.182 89.2062C120.343 88.4882 119.411 85.6793 118.012 85.6793C117.462 85.6793 117.285 86.3913 117.619 87.2613ZM129.226 111.729L125.726 113.695L129.726 113.031C131.926 112.666 135.076 111.78 136.726 111.062L139.726 109.757L136.226 109.76C134.301 109.762 131.151 110.648 129.226 111.729ZM157.96 110.278C157.556 110.682 157.226 111.837 157.226 112.846C157.226 114.312 158.011 114.679 161.144 114.679C163.299 114.679 165.887 114.965 166.894 115.314C168.504 115.87 168.484 115.754 166.726 114.345C165.279 113.186 165.127 112.734 166.176 112.711C167.081 112.691 167.269 112.333 166.676 111.757C165.364 110.484 158.858 109.38 157.96 110.278ZM19.226 111.466C19.226 111.899 20.126 112.321 21.226 112.404C22.326 112.487 23.226 112.133 23.226 111.617C23.226 111.101 22.326 110.679 21.226 110.679C20.126 110.679 19.226 111.033 19.226 111.466ZM87.226 111.679C85.944 112.507 85.98 112.651 87.476 112.664C88.439 112.672 89.226 112.229 89.226 111.679C89.226 110.459 89.113 110.459 87.226 111.679ZM267.226 113.846C267.226 114.854 267.901 115.679 268.726 115.679C269.551 115.679 270.226 114.854 270.226 113.846C270.226 112.837 269.551 112.012 268.726 112.012C267.901 112.012 267.226 112.837 267.226 113.846ZM12.726 113.679C10.063 114.357 10.266 114.456 14.535 114.561C17.513 114.634 19.109 114.298 18.726 113.679C18.038 112.566 17.102 112.566 12.726 113.679ZM36.226 113.679C35.044 114.443 35.256 114.637 37.226 114.593C38.601 114.563 40.626 114.152 41.726 113.679C43.443 112.941 43.302 112.812 40.726 112.765C39.076 112.734 37.051 113.146 36.226 113.679ZM140.009 113.914C141.696 114.727 142.595 114.71 143.459 113.846C144.348 112.957 143.806 112.695 141.176 112.747C137.936 112.81 137.865 112.881 140.009 113.914ZM53.726 114.679L51.726 115.537L53.726 115.55C54.826 115.558 57.526 115.191 59.726 114.736L63.726 113.909L59.726 113.864C57.526 113.84 54.826 114.206 53.726 114.679ZM70.039 115.362C70.76 115.651 71.623 115.615 71.955 115.283C72.287 114.951 71.697 114.715 70.643 114.758C69.478 114.806 69.241 115.043 70.039 115.362ZM151.976 115.341C152.664 115.619 153.789 115.619 154.476 115.341C155.164 115.064 154.601 114.837 153.226 114.837C151.851 114.837 151.289 115.064 151.976 115.341ZM158.896 120.428C157.332 121.985 155.275 122.141 140.276 121.844C124.627 121.534 123.375 121.642 122.866 123.344C122.565 124.353 122.594 134.178 122.931 145.178C123.268 156.177 123.512 170.127 123.472 176.177C123.321 199.625 122.455 235.293 121.98 237.675C121.706 239.05 121.417 240.85 121.338 241.675C121.211 243.008 121.088 243.008 120.226 241.675C119.693 240.85 119.25 237.812 119.241 234.925C119.229 230.734 119.555 229.675 120.855 229.675C122.251 229.675 122.374 228.924 121.714 224.426C121.291 221.539 120.866 216.251 120.769 212.676C120.673 209.101 120.014 204.601 119.305 202.676C118.338 200.048 118.243 196.984 118.925 190.375C119.605 183.782 119.509 180.645 118.544 177.875C117.836 175.841 117.236 173.052 117.211 171.677C117.17 169.467 117.045 169.383 116.128 170.958C115.446 172.13 115.415 173.841 116.039 175.958C116.559 177.729 116.77 181.427 116.505 184.177C116.241 186.927 116.045 193.349 116.07 198.45C116.094 203.551 115.736 207.491 115.275 207.206C114.813 206.921 114.163 207.397 113.831 208.264C112.816 210.908 113.155 213.676 114.493 213.676C116.1 213.676 115.969 227.419 114.334 230.473C112.954 233.051 112.894 237.352 114.226 238.175C115.485 238.953 115.551 248.391 114.301 248.842C113.739 249.044 113.767 251.141 114.372 254.175C114.921 256.925 115.393 260.187 115.423 261.425C115.452 262.663 115.982 263.689 116.601 263.705C117.22 263.722 116.906 264.213 115.903 264.796C114.173 265.802 114.168 265.954 115.808 267.766C117.961 270.143 119.202 270.2 119.305 267.924C119.352 266.88 119.587 266.678 119.888 267.424C120.175 268.134 121.978 268.631 124.059 268.574C127.362 268.485 127.478 268.395 125.226 267.674C122.876 266.922 122.924 266.868 126.035 266.775C127.855 266.72 129.107 266.291 128.817 265.822C128.527 265.354 131.313 264.941 135.008 264.905C138.703 264.87 144.345 264.535 147.545 264.161C152.504 263.582 153.561 263.751 154.693 265.3C155.905 266.957 156.547 267.009 161.966 265.89C165.235 265.214 169.34 264.948 171.087 265.297C173.08 265.696 175.909 265.304 178.684 264.244C182.422 262.817 184.541 262.699 192.415 263.483C199.566 264.194 202.422 264.106 204.726 263.1C209.419 261.052 217.393 260.888 216.976 262.849C216.72 264.05 224.953 266.282 225.951 265.283C226.251 264.983 225.705 263.529 224.737 262.051C223.104 259.558 223.1 259.413 224.683 260.02C225.622 260.38 229.304 260.675 232.867 260.675C237.501 260.675 239.141 261.003 238.632 261.827C237.671 263.382 246.041 262.281 247.597 260.649C248.461 259.743 247.903 259.598 245.226 260.033L241.726 260.602L244.976 259.494C247.17 258.746 249.282 258.698 251.476 259.348L254.726 260.311L249.726 262.947C244.99 265.443 244.884 265.583 247.726 265.612C249.376 265.629 252.526 264.619 254.726 263.369C258.71 261.104 258.727 261.07 258.884 254.635C258.97 251.082 259.339 246.375 259.703 244.175C260.59 238.819 260.601 237.912 259.844 232.675C259.368 229.386 259.458 228.714 260.18 230.175C260.882 231.597 260.994 230.372 260.568 225.933C260.162 221.705 260.361 219.218 261.184 218.227C261.856 217.417 262.046 216.193 261.609 215.487C259.434 211.968 259.848 181.3 262.164 174.335C263.099 171.524 263.145 170.196 262.334 169.385C260.856 167.907 260.923 156.84 262.443 151.155C263.4 147.579 263.4 146.186 262.443 144.654C261.004 142.35 260.823 135.485 262.165 134.128C262.752 133.535 262.658 130.961 261.915 127.281L260.726 121.384L212.81 121.281C175.44 121.201 164.801 120.903 164.476 119.928C163.876 118.128 160.943 118.391 158.896 120.428ZM117.571 128.684C117.819 130.612 118.705 133.762 119.542 135.684L121.063 139.178L121.103 135.678C121.124 133.753 120.238 130.603 119.132 128.678L117.122 125.178L117.571 128.684ZM116.757 139.971C116.329 140.957 116.26 142.045 116.602 142.388C117.618 143.403 118.437 141.977 117.969 140.006C117.555 138.259 117.501 138.258 116.757 139.971ZM267.312 143.346C267.265 145.639 266.953 148.226 266.619 149.096C266.285 149.966 266.459 150.678 267.006 150.678C268.36 150.678 269.118 144.842 268.169 141.719C267.513 139.557 267.385 139.799 267.312 143.346ZM115.384 152.678C115.384 154.052 115.611 154.615 115.888 153.927C116.166 153.241 116.166 152.116 115.888 151.428C115.611 150.741 115.384 151.303 115.384 152.678ZM116.258 159.857C116.275 161.683 116.938 164.034 117.73 165.08C119.02 166.785 119.237 166.813 119.799 165.347C120.145 164.446 120.495 162.24 120.577 160.443C120.699 157.762 120.323 157.12 118.476 156.857C116.525 156.58 116.23 156.98 116.258 159.857ZM115.226 166.177C115.226 167.002 115.403 167.677 115.619 167.677C115.835 167.677 116.271 167.002 116.588 166.177C116.904 165.352 116.727 164.677 116.195 164.677C115.662 164.677 115.226 165.352 115.226 166.177ZM264.241 220.426C264.25 220.839 264.637 221.776 265.102 222.51C265.791 223.597 266.053 223.569 266.518 222.358C266.832 221.54 266.819 220.603 266.49 220.274C265.65 219.433 264.223 219.529 264.241 220.426ZM121.026 249.175C120.721 252.475 120.827 255.837 121.262 256.646C122.559 259.059 123.565 251.248 122.51 246.953L121.581 243.175L121.026 249.175ZM296.726 261.675C297.066 262.225 297.542 262.675 297.785 262.675C298.028 262.675 298.226 262.225 298.226 261.675C298.226 261.125 297.749 260.675 297.167 260.675C296.585 260.675 296.386 261.125 296.726 261.675ZM142.726 266.782C139.983 267.382 140.083 267.447 143.894 267.556C146.187 267.621 148.774 267.947 149.644 268.281C150.514 268.615 151.226 268.441 151.226 267.895C151.226 266.58 146.484 265.959 142.726 266.782ZM280.726 266.727C276.842 267.647 291.07 268.06 315.643 267.738C318.347 267.703 320.304 267.419 319.992 267.107C319.133 266.249 284.167 265.91 280.726 266.727ZM359.224 267.177C358.46 268.097 358.707 268.566 360.152 268.944C363.399 269.794 379.329 268.484 378.967 267.397C378.455 265.861 360.483 265.66 359.224 267.177ZM324.988 267.382C326.232 267.62 328.032 267.612 328.988 267.362C329.944 267.112 328.926 266.916 326.726 266.927C324.526 266.938 323.744 267.143 324.988 267.382ZM220.226 269.674C220.226 270.224 220.649 270.674 221.167 270.674C221.685 270.674 222.386 270.224 222.726 269.674C223.066 269.124 222.642 268.674 221.785 268.674C220.928 268.674 220.226 269.124 220.226 269.674ZM267.151 286.007C267.028 300.256 267.065 309.367 267.269 314.923L267.461 320.173L268.305 315.173C269.239 309.635 268.877 278.991 267.865 277.98C267.514 277.628 267.192 281.241 267.151 286.007ZM267.498 326.673C267.498 329.148 267.693 330.161 267.932 328.923C268.17 327.685 268.17 325.661 267.932 324.423C267.693 323.185 267.498 324.198 267.498 326.673ZM265.919 359.738C265.044 363.085 266.427 377.672 267.619 377.669C269.345 377.665 269.481 358.984 267.759 358.323C267.001 358.032 266.205 358.644 265.919 359.738ZM270.226 362.339C270.226 365.274 271.434 364.778 271.912 361.646C272.078 360.56 271.766 359.672 271.22 359.672C270.673 359.672 270.226 360.872 270.226 362.339Z" fill="white"/>
</svg>
